{
    "asset" : {
        "generator" : "Khronos glTF Blender I/O v1.1.45",
        "version" : "2.0"
    },
    "extensionsUsed" : [
        "KHR_lights_punctual"
    ],
    "extensionsRequired" : [
        "KHR_lights_punctual"
    ],
    "extensions" : {
        "KHR_lights_punctual" : {
            "lights" : [
                {
                    "color" : [
                        1,
                        0.6444920301437378,
                        0.281572550535202
                    ],
                    "intensity" : 2,
                    "type" : "point",
                    "name" : "Area"
                },
                {
                    "color" : [
                        0.48318639397621155,
                        0.4423471689224243,
                        1
                    ],
                    "intensity" : 2,
                    "type" : "point",
                    "name" : "Area.001"
                }
            ]
        }
    },
    "scene" : 0,
    "scenes" : [
        {
            "name" : "Scene",
            "nodes" : [
                0,
                2,
                4
            ]
        }
    ],
    "nodes" : [
        {
            "mesh" : 0,
            "name" : "logo"
        },
        {
            "extensions" : {
                "KHR_lights_punctual" : {
                    "light" : 0
                }
            },
            "name" : "Area_Orientation",
            "rotation" : [
                -0.7071067690849304,
                0,
                0,
                0.7071067690849304
            ]
        },
        {
            "children" : [
                1
            ],
            "name" : "Area",
            "rotation" : [
                0.658430278301239,
                -0.1113307923078537,
                0.12604257464408875,
                0.7336131930351257
            ],
            "scale" : [
                5.08247184753418,
                5.08247184753418,
                5.08247184753418
            ],
            "translation" : [
                -3,
                2,
                13
            ]
        },
        {
            "extensions" : {
                "KHR_lights_punctual" : {
                    "light" : 1
                }
            },
            "name" : "Area.001_Orientation",
            "rotation" : [
                -0.7071067690849304,
                0,
                0,
                0.7071067690849304
            ]
        },
        {
            "children" : [
                3
            ],
            "name" : "Area.001",
            "rotation" : [
                0.712715744972229,
                0.03664826229214668,
                -0.02075217477977276,
                0.7001875042915344
            ],
            "scale" : [
                5.08247184753418,
                5.08247184753418,
                5.08247184753418
            ],
            "translation" : [
                5,
                -3,
                13
            ]
        }
    ],
    "materials" : [
        {
            "doubleSided" : true,
            "emissiveFactor" : [
                0,
                0,
                0
            ],
            "name" : "Black",
            "pbrMetallicRoughness" : {
                "baseColorFactor" : [
                    0,
                    0,
                    0,
                    1
                ],
                "metallicFactor" : 0.23371648788452148,
                "roughnessFactor" : 0.5
            }
        }
    ],
    "meshes" : [
        {
            "name" : "Circle",
            "primitives" : [
                {
                    "attributes" : {
                        "POSITION" : 0,
                        "NORMAL" : 1,
                        "TEXCOORD_0" : 2
                    },
                    "indices" : 3,
                    "material" : 0
                }
            ]
        }
    ],
    "accessors" : [
        {
            "bufferView" : 0,
            "componentType" : 5126,
            "count" : 3280,
            "max" : [
                4.817117691040039,
                4.599383354187012,
                0.24603986740112305
            ],
            "min" : [
                -4.969696044921875,
                -5.187430381774902,
                -0.25396013259887695
            ],
            "type" : "VEC3"
        },
        {
            "bufferView" : 1,
            "componentType" : 5126,
            "count" : 3280,
            "type" : "VEC3"
        },
        {
            "bufferView" : 2,
            "componentType" : 5126,
            "count" : 3280,
            "type" : "VEC2"
        },
        {
            "bufferView" : 3,
            "componentType" : 5123,
            "count" : 6408,
            "type" : "SCALAR"
        }
    ],
    "bufferViews" : [
        {
            "buffer" : 0,
            "byteLength" : 39360,
            "byteOffset" : 0
        },
        {
            "buffer" : 0,
            "byteLength" : 39360,
            "byteOffset" : 39360
        },
        {
            "buffer" : 0,
            "byteLength" : 26240,
            "byteOffset" : 78720
        },
        {
            "buffer" : 0,
            "byteLength" : 12816,
            "byteOffset" : 104960
        }
    ],
    "buffers" : [
        {
            "byteLength" : 117776,
            "uri" : "data:application/octet-stream;base64,"
        }
    ]
}
